<svg
  width="147"
  height="60"
  viewBox="0 0 147 60"
  fill="none"
  xmlns="http://www.w3.org/2000/svg">
  <g clipPath="url(#clip0_1_1088)">
    <path
      d="M78.8675 14.2317C81.9834 14.2317 83.7378 12.8271 83.7378 10.3359C83.7378 7.84476 81.9834 6.46667 78.8675 6.46667H73.5782V14.2317H78.8675ZM73.5782 26.131H70.6455V3.896H79.0246C83.6854 3.896 86.6443 6.09564 86.6443 10.3359C86.6443 14.5762 83.6854 16.8024 79.0246 16.8024H73.5782V26.131Z"
      fill="#010101"
    />
    <path
      d="M97.1181 17.8358L94.0021 18.5248C91.567 19.0284 89.8912 19.6909 89.8912 21.6521C89.8912 23.6132 91.0171 24.1697 92.7715 24.1697C94.5258 24.1697 97.1181 22.7121 97.1181 20.645V17.8623V17.8358ZM87.168 21.7581C87.168 18.5513 89.6555 17.1998 93.2166 16.4577L97.0919 15.6627V14.9736C97.0919 13.1185 96.0707 12.0584 93.9498 12.0584C91.8288 12.0584 90.7291 13.0125 90.2577 14.8146L87.6655 14.1256C88.4248 11.5019 90.7814 9.59375 94.0545 9.59375C97.3276 9.59375 99.8413 11.3694 99.8413 14.8146V22.7121C99.8413 23.7722 100.496 24.1167 101.543 23.8517V26.0778C99.1081 26.3959 97.6942 25.7863 97.3538 24.2492C96.3849 25.5213 94.6044 26.3429 92.4311 26.3429C90.2577 26.3429 87.168 24.6203 87.168 21.7051"
      fill="#010101"
    />
    <path
      d="M106.152 18.6308C106.152 22.3411 108.404 24.0107 110.682 24.0107C112.96 24.0107 115.369 21.493 115.369 18.0478C115.369 14.6026 113.693 12.0849 110.682 12.0849C107.671 12.0849 106.152 13.728 106.152 17.4913V18.6308ZM106.204 23.7722V31.6962H103.455V9.93825H106.204V12.2969C107.147 10.7068 108.928 9.64673 111.153 9.64673C115.579 9.64673 118.118 13.463 118.118 18.0743C118.118 22.6856 115.579 26.5019 111.153 26.5019C106.728 26.5019 107.147 25.4153 106.204 23.7987"
      fill="#010101"
    />
    <path
      d="M122.412 16.3516H131.027C130.975 14.0724 129.744 12.0053 126.968 12.0053C124.193 12.0053 122.91 13.5954 122.412 16.3516ZM119.637 18.0477C119.637 13.2244 122.674 9.62012 126.995 9.62012C131.315 9.62012 133.803 13.0653 133.803 17.5441V18.4717H122.255C122.412 21.8639 124.324 24.0371 127.125 24.0371C129.927 24.0371 130.791 22.871 131.289 20.9364L133.698 21.8109C132.729 24.6996 130.294 26.4487 127.125 26.4487C123.957 26.4487 119.637 23.0035 119.637 18.0212"
      fill="#010101"
    />
    <path
      d="M144.539 12.6944C144.068 12.5883 143.701 12.5618 143.204 12.5618C140.873 12.5618 139.014 14.417 139.014 17.2792V26.1308H136.265V9.93817H139.014V12.6944C139.721 11.0512 141.266 9.80566 143.439 9.80566C145.613 9.80566 144.277 9.83217 144.539 9.85867V12.6679V12.6944Z"
      fill="#010101"
    />
    <path
      d="M79.2337 52.3147C82.0878 52.3147 84.1302 50.6451 84.9157 47.8359L87.6913 48.7635C86.4083 52.6063 83.397 54.9649 79.2075 54.9649C75.018 54.9649 69.3359 50.3006 69.3359 43.5161C69.3359 36.7317 73.5255 32.0674 79.2075 32.0674C84.8896 32.0674 86.3821 34.426 87.6913 38.2688L84.9157 39.1964C84.1302 36.3872 82.0616 34.7176 79.2337 34.7176C75.1751 34.7176 72.2948 38.2688 72.2948 43.5426C72.2948 48.8165 75.1751 52.3677 79.2337 52.3677"
      fill="#010101"
    />
    <path
      d="M102.25 54.5935H99.501V52.3673C98.5845 53.7189 97.0134 54.938 94.7616 54.938C91.3314 54.938 89.4199 52.5528 89.4199 49.1076V38.4009H92.1693V48.5246C92.1693 50.8037 93.1381 52.3673 95.4947 52.3673C97.8513 52.3673 99.501 50.8567 99.501 48.1535V38.4009H102.25V54.5935Z"
      fill="#010101"
    />
    <path
      d="M106.283 40.8126H103.796V38.4274H106.283V33.6836H109.007V38.4274H112.646V40.8126H109.007V50.3267C109.007 52.0228 109.845 52.3408 111.232 52.3408C112.62 52.3408 112.332 52.3143 112.987 52.1553V54.5405C112.28 54.6995 111.494 54.779 110.578 54.779C107.855 54.779 106.283 53.8514 106.283 50.7507V40.8126Z"
      fill="#010101"
    />
    <path
      d="M54.5945 51.5195H54.0708V52.2616H54.5945C54.8825 52.2616 55.0658 52.1556 55.0658 51.8906C55.0658 51.6255 54.8825 51.5195 54.5945 51.5195ZM55.1443 53.7192L54.5159 52.7386H54.0708V53.7192H53.4424V51.016H54.673C55.3276 51.016 55.6942 51.3075 55.6942 51.8641C55.6942 52.4206 55.3538 52.5266 55.0658 52.6061L55.799 53.7192H55.092H55.1443ZM54.5683 50.0884C53.3114 50.0884 52.2902 51.069 52.2902 52.4206C52.2902 53.7722 53.2852 54.7528 54.5683 54.7528C55.8513 54.7528 56.8463 53.7457 56.8463 52.4206C56.8463 51.0955 55.8513 50.0884 54.5683 50.0884ZM54.5683 55.0973C53.1019 55.0973 51.8975 53.9577 51.8975 52.3941C51.8975 50.8305 53.1019 49.6909 54.5683 49.6909C56.0346 49.6909 57.2391 50.8305 57.2391 52.3941C57.2391 53.9577 56.0608 55.0973 54.5683 55.0973Z"
      fill="#010101"
    />
    <path
      d="M16.8362 3.896C26.5769 3.896 34.5108 10.5214 34.537 21.6257C34.537 21.6522 34.537 21.8112 34.537 21.8377H24.4559C18.5382 21.8377 13.7988 18.525 13.7988 12.4826V3.896H16.8362Z"
      fill="#010101"
    />
    <path
      d="M16.8362 41.3426C26.5769 41.3426 34.5108 34.7171 34.537 23.6129C34.537 23.5864 34.537 23.4274 34.537 23.4009H24.4559C18.5382 23.4009 13.7988 26.7136 13.7988 32.756V41.3161H16.8362V41.3426Z"
      fill="#010101"
    />
    <path
      d="M53.8091 41.3428C44.0685 41.3428 36.1346 34.7174 36.1084 23.6131V23.4011H46.1894C52.1072 23.4011 56.8466 26.7138 56.8466 32.7562V41.3163H53.8091V41.3428Z"
      fill="#010101"
    />
    <path
      d="M53.8091 3.89575C44.0685 3.89575 36.1346 10.5212 36.1084 21.6254V21.8375H46.1894C52.1072 21.8375 56.8466 18.5247 56.8466 12.4823V3.89575H53.8091Z"
      fill="#010101"
    />
    <path
      d="M12.0973 3.89575H1.54492V54.7526H12.0973V3.89575Z"
      fill="#010101"
    />
  </g>
  <defs>
    <clipPath id="clip0_1_1088">
      <rect width="147" height="60" fill="white" />
    </clipPath>
  </defs>
</svg>
