<svg width="84" height="84" viewBox="0 0 84 84" fill="none" xmlns="http://www.w3.org/2000/svg">
<path d="M39.375 52.5C37.8 52.5 36.75 53.55 36.75 55.125V63H31.5V55.125C31.5 53.55 30.45 52.5 28.875 52.5C27.3 52.5 26.25 53.55 26.25 55.125V65.625C26.25 67.2 27.3 68.25 28.875 68.25H36.75V76.125C36.75 77.7 37.8 78.75 39.375 78.75C40.95 78.75 42 77.7 42 76.125V55.125C42 53.55 40.95 52.5 39.375 52.5ZM13.125 68.25C17.5875 68.25 21 64.8375 21 60.375C21 55.9125 17.5875 52.5 13.125 52.5H7.875C6.3 52.5 5.25 53.55 5.25 55.125C5.25 56.7 6.3 57.75 7.875 57.75H13.125C14.7 57.75 15.75 58.8 15.75 60.375C15.75 61.95 14.7 63 13.125 63C8.6625 63 5.25 66.4125 5.25 70.875V76.125C5.25 77.7 6.3 78.75 7.875 78.75H18.375C19.95 78.75 21 77.7 21 76.125C21 74.55 19.95 73.5 18.375 73.5H10.5V70.875C10.5 69.3 11.55 68.25 13.125 68.25Z" fill="white"/>
<path d="M44.625 5.25C25.725 5.25 10.5 20.475 10.5 39.375C10.5 41.2125 10.7625 43.05 11.025 45.15C11.2875 46.4625 12.6 47.5125 14.175 47.25C15.4875 46.9875 16.5375 45.675 16.275 44.1C16.275 43.3125 16.0125 42.525 16.0125 42H21C22.575 42 23.625 40.95 23.625 39.375C23.625 37.8 22.575 36.75 21 36.75H16.0125C17.325 22.8375 28.35 11.8125 42 10.7625V15.75C42 17.325 43.05 18.375 44.625 18.375C46.2 18.375 47.25 17.325 47.25 15.75V10.7625C61.1625 12.075 72.1875 23.1 73.2375 36.75H68.25C66.675 36.75 65.625 37.8 65.625 39.375C65.625 40.95 66.675 42 68.25 42H73.5C72.45 54.8625 62.7375 65.625 49.6125 67.725C48.3 67.9875 47.25 69.3 47.5125 70.875C47.775 72.1875 48.825 72.975 50.1375 72.975H50.6625C66.675 70.35 78.75 56.175 78.75 39.375C78.75 20.475 63.525 5.25 44.625 5.25Z" fill="white"/>
<path d="M52.5 49.875C53.2875 49.875 53.8125 49.6125 54.3375 49.0875C55.3875 48.0375 55.3875 46.4625 54.3375 45.4125L47.25 38.325V26.25C47.25 24.675 46.2 23.625 44.625 23.625C43.05 23.625 42 24.675 42 26.25V39.375C42 40.1625 42.2625 40.6875 42.7875 41.2125L50.6625 49.0875C51.1875 49.6125 51.7125 49.875 52.5 49.875Z" fill="white"/>
</svg>
