<svg width="1300" height="170" viewBox="0 0 1300 170" fill="none" xmlns="http://www.w3.org/2000/svg">
<g clip-path="url(#clip0_8_37)">
<rect width="1300" height="170" fill="white"/>
<path d="M-47 0H5.5L-71.2943 170H-126L-47 0Z" fill="#B1B1B1" fill-opacity="0.2"/>
<path d="M33 0H85.5L8.70566 170H-46L33 0Z" fill="#B1B1B1" fill-opacity="0.2"/>
<path d="M113 0H165.5L88.7057 170H34L113 0Z" fill="#B1B1B1" fill-opacity="0.2"/>
<path d="M193 0H245.5L168.706 170H114L193 0Z" fill="#B1B1B1" fill-opacity="0.2"/>
<path d="M376 0H428.5L351.706 170H297L376 0Z" fill="#B1B1B1" fill-opacity="0.2"/>
<path d="M456 0H508.5L431.706 170H377L456 0Z" fill="#B1B1B1" fill-opacity="0.2"/>
<path d="M536 0H588.5L511.706 170H457L536 0Z" fill="#B1B1B1" fill-opacity="0.2"/>
<path d="M616 0H668.5L591.706 170H537L616 0Z" fill="#B1B1B1" fill-opacity="0.2"/>
<path d="M712 0H764.5L687.706 170H633L712 0Z" fill="#B1B1B1" fill-opacity="0.2"/>
<path d="M792 0H844.5L767.706 170H713L792 0Z" fill="#B1B1B1" fill-opacity="0.2"/>
<path d="M872 0H924.5L847.706 170H793L872 0Z" fill="#B1B1B1" fill-opacity="0.2"/>
<path d="M952 0H1004.5L927.706 170H873L952 0Z" fill="#B1B1B1" fill-opacity="0.2"/>
<path d="M1041 0H1093.5L1016.71 170H962L1041 0Z" fill="#B1B1B1" fill-opacity="0.2"/>
<path d="M1121 0H1173.5L1096.71 170H1042L1121 0Z" fill="#B1B1B1" fill-opacity="0.2"/>
<path d="M1201 0H1253.5L1176.71 170H1122L1201 0Z" fill="#B1B1B1" fill-opacity="0.2"/>
<path d="M1281 0H1333.5L1256.71 170H1202L1281 0Z" fill="#B1B1B1" fill-opacity="0.2"/>
<path d="M289 0H341.5L264.706 170H210L289 0Z" fill="#B1B1B1" fill-opacity="0.2"/>
</g>
<defs>
<clipPath id="clip0_8_37">
<rect width="1300" height="170" fill="white"/>
</clipPath>
</defs>
</svg>
